# xmcd
#
# Track frame offsets:
#	150
#	8899
#	30305
#	39720
#	50818
#	63633
#	78097
#	89301
#	100736
#	112005
#	127353
#	145373
#	158129
#	169147
#	180855
#	193374
#	204374
#	218893
#	231776
#	246542
#
# Disc length: 3504 seconds
#
# Revision: 0
# Processed by: cddbd v1.5.2PL0 Copyright (c) Steve Scherf et al.
# Submitted via: EasyCDDAExtractor 16.0.6.1
#
DISCID=210dae14
DTITLE=Chris LeDoux - 20 Originals: The Early Years
DYEAR=2004
DGENRE=Country
TTITLE0=Copenhagen
TTITLE1=Photo Finish
TTITLE2=Mighty Lucky Man
TTITLE3=Fourth of July Rodeos
TTITLE4=Fine as Wine
TTITLE5=Caballo Diablo
TTITLE6=I've Got to Be a Rodeo Man
TTITLE7=Littlest Cowboy Rides Again
TTITLE8=All Around Cowboy
TTITLE9=Bad Brahma Bull
TTITLE10=Paint Me Back Home in Wyoming
TTITLE11=Lean, Mean and Hungry
TTITLE12=Ten Seconds in the Saddle
TTITLE13=Freedom Ain't Free
TTITLE14=He Rides the Wild Horses
TTITLE15=So You Want to Be a Cowboy
TTITLE16=(I Used to Want to Be A) Cowboy
TTITLE17=Tennessee Stud
TTITLE18=It Ain't the Years, it's the Miles
TTITLE19=Running Through the Rain
EXTD=
EXTT0=
EXTT1=
EXTT2=
EXTT3=
EXTT4=
EXTT5=
EXTT6=
EXTT7=
EXTT8=
EXTT9=
EXTT10=
EXTT11=
EXTT12=
EXTT13=
EXTT14=
EXTT15=
EXTT16=
EXTT17=
EXTT18=
EXTT19=
PLAYORDER=
